<svg xmlns="http://www.w3.org/2000/svg" viewBox="0 0 1440 320"><path fill="#C1ECE4" fill-opacity="1" d="M0,288L20,277.3C40,267,80,245,120,218.7C160,192,200,160,240,160C280,160,320,192,360,192C400,192,440,160,480,160C520,160,560,192,600,186.7C640,181,680,139,720,128C760,117,800,139,840,154.7C880,171,920,181,960,192C1000,203,1040,213,1080,202.7C1120,192,1160,160,1200,176C1240,192,1280,256,1320,272C1360,288,1400,256,1420,240L1440,224L1440,320L1420,320C1400,320,1360,320,1320,320C1280,320,1240,320,1200,320C1160,320,1120,320,1080,320C1040,320,1000,320,960,320C920,320,880,320,840,320C800,320,760,320,720,320C680,320,640,320,600,320C560,320,520,320,480,320C440,320,400,320,360,320C320,320,320,320,240,320C200,320,160,320,120,320C80,320,40,320,320,320L0,320Z"></path></svg>