<?xml version="1.0" ?><svg data-name="Layer 1" id="Layer_1" viewBox="0 0 200 200" xmlns="http://www.w3.org/2000/svg"><path d="M110.3,156a35.42,35.42,0,0,1-25.22-10.45L54.45,114.92a35.66,35.66,0,0,1,0-50.44,7.58,7.58,0,0,1,10.74,0L78.45,77.73a7.44,7.44,0,0,1,0,10.5,14.94,14.94,0,0,0,0,21.11l12.21,12.21a14.93,14.93,0,0,0,21.11,0,7.44,7.44,0,0,1,10.5,0l13.25,13.26a7.58,7.58,0,0,1,0,10.74A35.41,35.41,0,0,1,110.3,156ZM59.82,65.85A4,4,0,0,0,57,67a32.07,32.07,0,0,0,0,45.35L87.63,143A32.07,32.07,0,0,0,133,143a4,4,0,0,0,1.17-2.83,4,4,0,0,0-1.17-2.82L119.72,124.1a3.82,3.82,0,0,0-5.4,0,18.54,18.54,0,0,1-26.2,0L82,118l1.28-1.27L82,118l-6.07-6.07a18.55,18.55,0,0,1,0-26.2,3.82,3.82,0,0,0,0-5.4L62.64,67A3.94,3.94,0,0,0,59.82,65.85Z"/><path d="M151,91.58h-.13a1.8,1.8,0,0,1-1.67-1.92l2.88-41.77-41.77,2.88a1.8,1.8,0,0,1-.25-3.59L156,44l-3.17,45.9A1.79,1.79,0,0,1,151,91.58Z"/><path d="M98.61,103.19a1.8,1.8,0,0,1-1.27-3.07l55.45-55.46a1.8,1.8,0,0,1,2.55,2.55L99.88,102.66A1.8,1.8,0,0,1,98.61,103.19Z"/></svg>