<svg id="visual" viewBox="0 0 960 540" width="960" height="540" xmlns="http://www.w3.org/2000/svg" xmlns:xlink="http://www.w3.org/1999/xlink" version="1.1"><path d="M0 429L96 447L192 429L288 436L384 429L480 440L576 420L672 451L768 453L864 417L960 434L960 541L864 541L768 541L672 541L576 541L480 541L384 541L288 541L192 541L96 541L0 541Z" fill="#77c9bc"></path><path d="M0 455L96 460L192 452L288 459L384 457L480 434L576 440L672 430L768 442L864 457L960 453L960 541L864 541L768 541L672 541L576 541L480 541L384 541L288 541L192 541L96 541L0 541Z" fill="#82d0be"></path><path d="M0 447L96 469L192 443L288 470L384 462L480 449L576 469L672 462L768 468L864 475L960 458L960 541L864 541L768 541L672 541L576 541L480 541L384 541L288 541L192 541L96 541L0 541Z" fill="#8cd6c1"></path><path d="M0 476L96 460L192 466L288 471L384 477L480 486L576 460L672 484L768 472L864 474L960 469L960 541L864 541L768 541L672 541L576 541L480 541L384 541L288 541L192 541L96 541L0 541Z" fill="#97ddc4"></path><path d="M0 483L96 482L192 493L288 470L384 490L480 472L576 480L672 495L768 493L864 490L960 489L960 541L864 541L768 541L672 541L576 541L480 541L384 541L288 541L192 541L96 541L0 541Z" fill="#a3e3c6"></path><path d="M0 501L96 492L192 489L288 501L384 489L480 499L576 497L672 507L768 492L864 488L960 487L960 541L864 541L768 541L672 541L576 541L480 541L384 541L288 541L192 541L96 541L0 541Z" fill="#aeeac9"></path><path d="M0 504L96 508L192 510L288 515L384 517L480 502L576 510L672 501L768 502L864 500L960 505L960 541L864 541L768 541L672 541L576 541L480 541L384 541L288 541L192 541L96 541L0 541Z" fill="#b9f1cc"></path><path d="M0 527L96 514L192 528L288 520L384 516L480 520L576 527L672 517L768 515L864 518L960 516L960 541L864 541L768 541L672 541L576 541L480 541L384 541L288 541L192 541L96 541L0 541Z" fill="#c5f7cf"></path></svg>