<svg xmlns="http://www.w3.org/2000/svg" xmlns:xlink="http://www.w3.org/1999/xlink" version="1.1" id="Layer_1" x="0px" y="0px" viewBox="0.0 0.0 600.0 600.0" style="enable-background:new 0 0 600 600;" xml:space="preserve" width="316.22776601683796" height="316.22776601683796">
<style type="text/css">
	.st0{fill:#FFFFFF;}
	.st1{fill:#2D388C;}
	.st2{fill:#FFFFFF;stroke:#000000;stroke-width:1.25;stroke-miterlimit:10;}
	.st3{fill:none;stroke:#000000;stroke-width:1.25;stroke-miterlimit:10;}
	.st4{fill:none;stroke:#2D388C;stroke-width:3;stroke-miterlimit:10;}
	.st5{fill:none;stroke:#2D388C;stroke-width:4;stroke-miterlimit:10;}
	.st6{fill:#EA2427;stroke:#EA2427;stroke-width:0.75;stroke-miterlimit:10;}
	.st7{fill:none;stroke:#000000;stroke-width:2.5;stroke-miterlimit:10;}
	.st8{fill:#954A22;}
	.st9{fill:#DA9339;}
	.st10{fill:#954A22;stroke:#DA9339;stroke-width:3;stroke-miterlimit:10;}
	.st11{fill:none;stroke:#000000;stroke-miterlimit:10;}
</style>
<g id="XMLID_200_">
	<path id="XMLID_137_" class="st0" d="M298.1,495.1c-11.4,0-51.7-2-92.5-28.4c-23.5-15.2-43-36-57.9-61.7   c-18.3-31.6-29.7-71-34.1-117.1L113.5,39h374v249.2c0,0.4-2.1,50.7-26.3,101.1c-14.1,29.5-32.9,53.3-55.9,70.7   c-28.7,21.7-64.1,33.5-105.1,35C300.2,495,299.5,495.1,298.1,495.1z"/>
	<path id="XMLID_133_" class="st1" d="M485.5,41v247.1c-0.1,2.1-2.5,51.2-26.1,100.5c-14,29.2-32.6,52.7-55.3,69.9   c-28.4,21.4-63.3,33.1-103.9,34.6c0,0-0.7,0-2,0c-4.7,0-17.4-0.4-34-4.1c-20.7-4.7-40.1-12.7-57.4-23.9c-23.3-15-42.5-35.6-57.3-61   c-18.1-31.3-29.5-70.4-33.8-116.2L115.5,41H485.5 M489.5,37h-378l0.2,251c19,202.2,166.6,209.1,186.5,209.1c1.4,0,2.2,0,2.2,0   c181.9-6.8,189.2-208.9,189.2-208.9V37L489.5,37z"/>
</g>
<g id="XMLID_194_">
	<path id="XMLID_199_" class="st2" d="M215.5,455.2h85c0,0,7.5,8.9,18.2,0h66.8v-25.4l-33.9-105.1c0,0-21.1-6.4-49,4.3   c0,0-20.4-14.3-64.3-15.4c0,0.4,1.1,16.4-12.1,12.9C226.2,326.9,215.5,455.2,215.5,455.2z"/>
	<path id="XMLID_198_" class="st2" d="M235.3,413.9l2-92c0,0,34.4-5.2,64.5,16.2c0,0,10.7-10.7,42.9-6.4   c-0.4-0.4,27.9,89.3,27.9,89.3s-37.9-7.1-65,22.9C307.1,444,281,417.5,235.3,413.9z"/>
	<path id="XMLID_197_" class="st2" d="M308.9,431.1l-5-85.4c0,0,18.9-9.6,36.4-4.6c22.2,73.6,22.2,73.6,22.2,73.6   S336.1,411.8,308.9,431.1z"/>
	<path id="XMLID_196_" class="st2" d="M303.9,429l-5-80.8c0,0-17.2-21.4-52.9-18.6l-1.8,77.9C244.2,407.5,291.7,411.8,303.9,429z"/>
	<path id="XMLID_195_" class="st3" d="M385.4,439.6c-44.7-22.2-76.5,12.9-76.5,12.9c-24.3-17.5-86.5-12.1-86.5-12.1l7-111l0.1-2.3"/>
</g>
<path id="XMLID_193_" class="st4" d="M300.5,347.7"/>
<line id="XMLID_192_" class="st5" x1="485.4" y1="287.8" x2="115.6" y2="287.8"/>
<line id="XMLID_191_" class="st5" x1="300.7" y1="287.8" x2="300.3" y2="40.6"/>
<g id="XMLID_173_">
	<g id="XMLID_174_">
		<path id="XMLID_176_" class="st6" d="M247,99.8c1.8-0.6,3.7-1,5.6-1.1c2.6,0,4.8,0.8,6.4,2.8c1.2,1.5,1.7,3.2,2,5    c0.4,2.4,0.2,4.8-0.1,7.2c-0.7,4.6-2,9.1-3.6,13.5c-2.1,5.6-4.7,11-7.5,16.3c-0.4,0.9-0.9,1.7-1.3,2.6c-0.1,0.3-0.1,0.4,0.2,0.5    c0.9,0.2,1.7,0.4,2.5,0.6c5.7,1.2,11.3,2.6,16.8,4.2c1-1.3,2.2-2.1,3.7-2.5c4.1-1.1,8.1,2.1,7.8,6.2c-0.1,0.8,0.2,1.2,0.8,1.5    c0.3,0.1,0.5,0.3,0.7,0.4c0.5,0.3,1,0.5,1.4,0.8c2.6,1.8,5.1,3.8,6.5,6.6c1.4,2.8,1.3,5.5-0.5,8.1c-0.8,1.1-1.8,2.1-2.8,3    c-2.8,2.3-6.1,3.9-9.4,5.2c-3.9,1.6-8,2.8-12.1,3.8c-5,1.2-10.1,2.1-15.3,2.7c-1.9,0.2-3.9,0.5-5.8,0.8c-0.7,0.1-0.8,0.3-0.6,0.9    c0.4,1.1,0.6,2.2,0.9,3.2c1.5,6.1,2.6,12.3,3.2,18.5c0.3,3.7,0.5,7.5-0.1,11.2c-0.7,4.6-2.1,9.1-5.7,12.9c-5,1.9-9.1,0.9-12.9-1    c-3.5-1.7-6.5-4.1-9.4-6.6c-5.8-5.2-10.7-11.2-15.2-17.5c-0.5-0.7-1-1.3-1.5-2c-0.4-0.5-0.3-0.3-1.2,0.4    c-4.1,3.8-8.1,7.6-12.4,11.1c-0.2,0.1-0.2,0.2-0.1,0.4c0.8,3.4-1.3,6.8-4.6,7.7c-1.8,0.5-3.5,0.3-5.2-0.7c-0.1-0.1-0.3-0.1-0.4,0    c-0.5,0.3-0.9,0.6-1.4,0.8c-3.1,1.8-6.3,3.5-9.8,4.5c-2,0.6-4,0.9-6.1,0.8c-3.2-0.3-5.5-1.9-6.8-4.9c-0.7-1.7-0.9-3.5-0.9-5.4    c0-3.5,0.7-6.8,1.6-10.1c1.4-5.1,3.4-10,5.6-14.8c1.9-4.1,4-8.2,6.2-12.1c0.1-0.2,0.2-0.3-0.1-0.4c-3.2-0.5-6.3-1.2-9.4-2    c-5.5-1.4-10.9-2.9-16.1-5c-4.1-1.6-8-3.7-11.5-6.5c-1.5-1.2-3-2.6-3.9-4.4c-1.2-2.5-1.3-5,0-7.4c0.5-1,1.2-1.9,2-2.7    c1.5-1.6,3.3-2.7,5.2-3.6c4.1-2,8.3-3.9,12.8-5.1c6.3-1.6,12.6-2.8,19.1-3.7c2.1-0.3,4.3-0.4,6.4-0.8c1-0.2,1-0.2,0.7-1.2    c-0.9-3.2-1.7-6.5-2.4-9.8c-0.4-1.9-0.7-3.9-1.1-5.8c-0.1-0.3-0.2-0.4-0.5-0.5c-3.5-0.6-5.8-3.7-5.1-7.1c0.5-2.6,2.1-4.3,4.6-5.1    c0.3-0.1,0.3-0.2,0.3-0.4c0.1-2.1,0.3-4.1,0.7-6.1c0.6-2.8,1.5-5.4,3.1-7.7c2.3-3.2,5.4-4.4,9.2-4c2,0.2,3.8,0.9,5.6,1.7    c3.3,1.6,6.2,3.7,8.9,6.1c4.8,4.2,9,9,12.8,14.1c1.5,1.9,2.9,3.9,4.4,5.9c0.6,0.8,0.5,1,1.4,0.1c1.4-1.3,2.8-2.6,4.2-3.9    c5.2-4.8,10.5-9.5,16.4-13.5c2.8-1.9,5.6-3.6,8.6-5.1C244,100.9,245.5,100.3,247,99.8z M223.3,149.9c-0.5-0.9-0.9-1.7-1.4-2.6    c-0.1-0.2-0.3-0.3-0.5-0.4c-5.1-0.5-10.3-0.7-15.4-0.9c-2.5-0.1-5.1-0.1-7.6,0c-0.5,0-0.9,0.2-1.2,0.6    c-4.4,5.2-8.7,10.5-12.5,16.2c-0.4,0.6-0.8,1.2-1.2,1.9c-0.1,0.3-0.2,0.5-0.1,0.8c1,2.8,2.2,5.5,3.5,8.2c1.4,3.1,2.8,6.2,4.3,9.2    c0.4,0.7,0.8,1.3,1.2,2c1.8,0.3,3.6,0.4,5.5,0.5c5.5,0.3,11.1,0.5,16.6,0.4c0.7,0,1.5-0.1,2.2-0.1c1-1,1.8-2.1,2.7-3.2    c3.4-4.3,6.8-8.5,9.9-13c0.7-1,1.3-1.9,1.8-2.9c-1.3-3.1-2.6-6-4.5-9.9C225.9,155,224.6,152.4,223.3,149.9z M233.5,110.7    c-6.1,4.6-11.8,9.8-17.2,15.2c-0.3,0.3-0.7,0.7-1,1c-0.6,0.7-0.7,0.6-0.3,1.1c0.6,1,1.2,2,1.9,3c1.4,2.2,2.8,4.4,4.1,6.7    c1.1,1.8,2.1,3.7,3.1,5.6c0.1,0.2,0.3,0.3,0.5,0.3c4.1,0.4,8.1,0.8,12.2,1.4c2.3,0.3,4.6,0.7,6.9,1c0.8,0.1,1.2-0.1,1.6-0.8    c1.4-2.2,2.6-4.4,3.8-6.7c1.9-3.6,3.7-7.3,5.2-11.1c1.7-4.2,3.1-8.4,3.9-12.8c0.4-2.2,0.6-4.4,0.2-6.6c-0.2-1.4-0.7-2.7-1.5-3.8    c-0.9-1.2-2.1-1.9-3.5-2.1c-2-0.3-4,0-5.9,0.6c-1.1,0.4-2.2,0.9-3.3,1.4C240.3,105.9,236.9,108.2,233.5,110.7z M242.1,227.7    c1.2-2.5,1.7-5.2,1.8-7.9c0.3-4.5-0.1-8.9-0.8-13.3c-0.8-5.5-2.2-11-3.7-16.4c-0.1-0.2-0.2-0.5-0.3-0.7c-0.3-0.8-0.7-0.9-1.6-0.8    c-1.1,0.1-2.1,0.2-3.2,0.2c-5.1,0.3-10.2,0.6-15.3,0.7c-0.6,0-1,0.2-1.3,0.6c-4.1,4.7-8.3,9.3-12.5,13.8c-0.8,0.9-0.8,0.9-0.1,1.9    c3.9,5.8,8.2,11.4,13.1,16.4c2.8,2.8,5.7,5.4,9.1,7.5c1.9,1.2,3.9,2.1,6.1,2.6c1.7,0.4,3.3,0.2,5-0.6    C240.1,231,241.3,229.5,242.1,227.7z M132.1,157.4c-1.2,0.8-2.2,1.8-3,3c-1.3,2.1-1.2,4.1,0.1,6.2c1.2,1.9,3,3.3,4.9,4.5    c3.4,2.2,7.1,3.8,10.9,5c7.2,2.4,14.5,4.3,21.9,5.5c1.7,0.3,1.3,0.4,2.1-1c3-5,6.1-9.8,9.5-14.5c0.1-0.1,0.3-0.3,0.4-0.5    c0.2-0.3,0.3-0.4,0.2-0.7c-0.7-1.7-1.3-3.3-1.9-5c-1.2-3-2.3-6.1-3.2-9.2c-0.3-1.1-0.7-2.2-1.1-3.3c-0.1-0.3-0.3-0.4-0.6-0.4    c-0.8-0.1-1.6,0-2.5,0.1c-6.9,0.7-13.7,1.7-20.4,3.3c-2.8,0.7-5.6,1.4-8.4,2.4c-1.3,0.5-2.5,1.1-4.2,1.8    C135.5,155.5,133.7,156.3,132.1,157.4z M283.6,173.8c0.8-0.7,1.5-1.5,2.1-2.4c1.2-1.9,1.2-3.9,0.1-5.9c-1.2-2.1-2.9-3.5-4.9-4.8    c-0.8-0.5-1.7-1-2.5-1.4c-0.2-0.1-0.4-0.1-0.5,0.1c-2.1,2.1-5.4,2.6-8,1.1c-2.1-1.2-3.1-3.1-3-5.5c0-0.2,0-0.3-0.3-0.4    c-6.5-2-13.1-3.5-19.9-4.6c-0.7-0.1-0.6-0.2-0.9,0.4c-3,5.4-6.3,10.5-9.7,15.5c0,0-0.1,0.1-0.1,0.1c-0.6,0.7-0.6,1.5-0.2,2.4    c1.1,2.4,2,5,2.9,7.5c1,2.9,1.8,5.8,2.9,8.6c0.1,0.4,0.3,0.5,0.7,0.4c2.8-0.2,5.5-0.6,8.2-1c4.2-0.6,8.5-1.2,12.7-2.2    c4-0.9,7.9-2,11.7-3.4c0.9-0.3,1.8-0.7,2.7-1.1C279.6,176.4,281.7,175.3,283.6,173.8z M172.9,102.9c-1.2,1.9-1.8,4-2.2,6.2    c-0.3,1.6-0.3,3.2-0.5,4.8c0,0.2,0.1,0.3,0.3,0.4c2.6,0.8,4.2,2.4,4.5,5.1c0.4,2.7-0.8,4.8-3.1,6.3c-0.6,0.4-0.7,0.8-0.6,1.4    c0.4,3,1.4,5.9,1.6,9c0.1,0.8,0.3,1.7,0.7,2.4c0.8,1.6,0.9,3.5,1.8,5.1c2.7-0.2,5.4-0.4,8-0.6c4.3-0.2,8.5-0.3,12.8-0.3    c3.4-4.1,6.9-8.2,10.6-12.1c0.8-0.8,1.5-1.6,2.3-2.4c0.8-0.8,0.7-0.6,0.2-1.6c-0.3-0.6-0.7-1.1-1-1.6c-3.2-4.6-6.6-9.2-10.4-13.3    c-2.9-3.2-6-6.2-9.6-8.7c-2-1.4-4.2-2.6-6.6-3.2c-1.9-0.5-3.8-0.4-5.6,0.2c-0.1,0-0.2,0.1-0.3,0.1    C174.7,100.8,173.7,101.8,172.9,102.9z M175.8,224.6c0.2-0.1,0.2-0.2,0.1-0.4c-1.2-2.8-0.3-5.9,2.2-7.7c2.5-1.8,5.8-1.7,8.1,0.3    c0.3,0.2,0.4,0.2,0.6,0c3.6-2.9,6.9-6,10.3-9.1c0.7-0.6,1.3-1.3,2-2c0,0,0.1-0.1,0.1-0.1c0.5-0.5,0.5-0.9,0.2-1.6    c-0.3-0.6-0.7-1.1-1-1.6c-1.9-2.7-3.6-5.6-5.3-8.4c-1-1.8-2-3.6-3.1-5.5c-0.1-0.2-0.2-0.2-0.3-0.2c-6.4-0.5-12.7-1.5-19.1-2.3    c-0.6-0.1-0.9,0.1-1.2,0.6c-0.9,1.4-1.6,2.8-2.4,4.2c-3,5.6-5.8,11.4-8,17.4c-1.3,3.5-2.4,7.1-2.8,10.9c-0.2,1.8-0.2,3.7,0.2,5.5    c0.7,2.9,2.6,4.6,5.6,4.9c1.8,0.1,3.5-0.2,5.2-0.8c1.6-0.6,3.1-1.2,4.6-1.9C173.2,226,174.5,225.3,175.8,224.6z M233.8,162.5    c0.4,0.7,0.4,0.7,0.9,0.1c2.1-2.9,3.9-5.9,5.8-9c0.7-1.1,1.3-2.3,2-3.4c0.3-0.6,0.3-0.6-0.3-0.8c-1.3-0.4-2.7-0.5-4.1-0.7    c-3.4-0.6-6.9-1-10.3-1.2c-1.3-0.1-1.2-0.2-0.9,0.6c1,2.3,2.1,4.6,3.2,6.9C231.2,157.4,232.4,159.9,233.8,162.5z M185.2,146.1    c-2.3,0.1-4.5,0.2-6.8,0.4c-0.3,0-0.7,0.1-1,0.2c-0.7,0.2-0.8,0.4-0.6,1.1c0.3,1,0.6,2,0.9,3c0.9,3,2.1,6,3.5,8.8    c0.2,0.4,0.4,0.8,0.8,1.1c0.3-0.2,0.6-0.6,0.8-0.9c3.2-4.7,6.7-9.1,10.3-13.4c0.1-0.1,0.1-0.2,0.3-0.3    C190.6,145.9,187.9,146,185.2,146.1z M208.7,189.6c-4.3-0.1-8.6-0.3-12.9-0.7c-0.8-0.1-1,0.2-0.7,0.9c0.7,1.7,1.8,3.1,2.6,4.7    c0.6,1.1,1.2,2.1,1.9,3.1c0.8,1.1,1.4,2.4,2.3,3.5c0.6,0.8,0.7,0.6,1.8-0.4c0.9-0.8,1.7-1.6,2.5-2.5c2.5-2.7,5.1-5.4,7.3-8.4    c0.1-0.1,0.1-0.2,0.3-0.3C212.1,189.6,210.4,189.6,208.7,189.6z M213.1,132c-0.3-0.4-0.5-0.9-0.9-1.3c-0.4-0.5-0.6-0.5-1.1-0.1    c-2.1,2-4,4.2-6,6.4c-1.4,1.5-2.7,3-3.9,4.6c-0.1,0.1-0.2,0.2-0.3,0.4c-0.1,0.1-0.2,0.2-0.2,0.3c0.1,0.1,0.3,0.1,0.4,0.1    c1.2,0,2.3,0,3.5,0c4.3,0,8.7,0.2,13,0.5c0.5,0,0.9,0.1,1.4,0.2c0.4,0.1,0.5,0,0.4-0.4c-0.2-0.5-0.4-1-0.7-1.5    C217,138.1,215.1,135,213.1,132z M180.6,169.7c-0.4-0.7-0.4-0.7-0.8-0.1c-2.5,3.7-4.9,7.4-7.2,11.2c-0.3,0.4-0.5,0.9-0.7,1.3    c-0.1,0.3-0.1,0.4,0.2,0.4c1.3,0.3,2.6,0.5,3.9,0.7c3.5,0.6,7.1,1.1,10.7,1.4c0.1,0,0.1,0,0.2,0c0.8,0.1,0.8,0,0.5-0.7    c-0.4-1.1-0.9-2.2-1.4-3.3c-0.7-1.4-1.3-2.9-2-4.3C182.8,174.2,181.7,171.9,180.6,169.7z M222,185.8c5.3,0,10.5-0.2,15.8-0.5    c-0.3-1.7-0.9-3.4-1.4-5c-0.9-2.7-1.8-5.3-2.9-7.9c-0.2-0.4-0.4-0.8-0.6-1.2c-0.2-0.3-0.3-0.3-0.5,0c-0.8,1.1-1.4,2.2-2.2,3.3    c-2.6,3.5-5.2,7.1-8.1,10.4c-0.2,0.2-0.4,0.5-0.6,0.8C221.6,185.9,221.8,185.8,222,185.8z"/>
		<path id="XMLID_175_" class="st6" d="M203.8,158.9c-4.4,2.2-6.3,6.5-4.4,13.1c7.1,3.8,13,2.1,15.6-3.6c2.5-5.3-1.7-11.2-7.7-10.5    c-0.6,0.1-1.1,0.2-1.7,0.3C204.9,158.5,204.3,158.7,203.8,158.9z"/>
	</g>
</g>
<g id="XMLID_168_">
	<path id="XMLID_128_" d="M443,153.9l24.1,0.2l-0.2,24.1l-24.1-0.2L443,153.9 M441.1,151.9l-0.2,28.1l28.1,0.2l0.2-28.1L441.1,151.9   L441.1,151.9z"/>
</g>
<g id="XMLID_163_">
	<path id="XMLID_51_" d="M321.3,153.9l24.1,0.2l-0.2,24.1l-24.1-0.2L321.3,153.9 M319.3,151.9l-0.2,28.1l28.1,0.2l0.2-28.1   L319.3,151.9L319.3,151.9z"/>
</g>
<circle id="XMLID_162_" class="st7" cx="394.1" cy="166.1" r="49.5"/>
<circle id="XMLID_161_" class="st7" cx="394.1" cy="166.1" r="25.6"/>
<g id="XMLID_156_">
	<path id="XMLID_46_" d="M406.2,214.9V239h-24.1v-24.1H406.2 M408.2,212.9h-28.1V241h28.1V212.9L408.2,212.9z"/>
</g>
<g id="XMLID_151_">
	<path id="XMLID_41_" d="M406.2,93.1v24.1h-24.1V93.1H406.2 M408.2,91.1h-28.1v28.1h28.1V91.1L408.2,91.1z"/>
</g>
<g id="XMLID_146_">
	<path id="XMLID_36_" d="M437.4,106l16.9,17.2l-17.2,16.9l-16.9-17.2L437.4,106 M437.4,103.2l-20.1,19.7l19.7,20.1l20.1-19.7   L437.4,103.2L437.4,103.2z"/>
</g>
<g id="XMLID_141_">
	<path id="XMLID_32_" d="M351.2,192l16.9,17.2l-17.2,16.9L334,208.9L351.2,192 M351.2,189.2l-20.1,19.7l19.7,20.1l20.1-19.7   L351.2,189.2L351.2,189.2z"/>
</g>
<g id="XMLID_136_">
	<path id="XMLID_28_" d="M437.1,192.1l17,17.1l-17.1,17l-17-17.1L437.1,192.1 M437.1,189.3l-19.9,19.8l19.8,19.9l19.9-19.8   L437.1,189.3L437.1,189.3z"/>
</g>
<g id="XMLID_131_">
	<path id="XMLID_24_" d="M351.1,105.9l17,17.1l-17.1,17l-17-17.1L351.1,105.9 M351.1,103.1l-19.9,19.8l19.8,19.9L371,123   L351.1,103.1L351.1,103.1z"/>
</g>
<g id="XMLID_123_">
	<g id="XMLID_125_">
		<path id="XMLID_22_" class="st8" d="M301.8,586.3c-29.8,0-132.9-4.8-211.2-66.6v-77.8c6.1,6.1,23.1,21.4,50.9,36.6    c32.7,17.9,87.7,39.2,163.6,39.2c2,0,3.9,0,5.9,0l0.5,0c3.8,0,38.7-0.3,79.9-10.3c51.9-12.6,91.8-34.5,118.5-65.1c0,2,0,4,0,6    c0.2,31.8,0,70.8-0.1,76.5c-3.1,2.5-19.9,15.7-49.8,29.1c-30.5,13.7-81.1,30.4-149.2,32.2l-1.5,0l0,0    C308,586.2,305.4,586.3,301.8,586.3z"/>
		<path id="XMLID_19_" class="st9" d="M92.1,445.5c7.6,7.2,23.7,20.7,48.7,34.3c32.9,17.9,88.1,39.3,164.3,39.3c2,0,4,0,5.9,0l0.5,0    c3.9,0,38.8-0.3,80.3-10.3c50.6-12.2,89.8-33.3,116.7-62.6c0,0.7,0,1.4,0,2.1c0.2,30.7,0,68.1-0.1,75.7    c-4.1,3.3-20.7,15.8-49,28.6c-30.3,13.6-80.7,30.2-148.5,32l-3,0.1l0,0c-1.5,0-3.5,0.1-6.1,0.1c-29.6,0-131.9-4.8-209.7-65.8    V445.5 M511.4,438.2c-63.5,76.6-190.8,77.9-199.9,77.9c-0.3,0-0.5,0-0.5,0c-2,0-4,0-5.9,0c-146.4,0-216-77.9-216-77.9v82.2    c78.5,62.3,181.7,67.4,212.7,67.4c6,0,9.3-0.2,9.2-0.2c132.6-3.6,200.5-62.2,200.5-62.2s0.2-42.6,0.1-77.2    C511.5,444.8,511.5,441.5,511.4,438.2L511.4,438.2z"/>
	</g>
	<path id="XMLID_124_" class="st10" d="M302.8,584.7c0,0,10.4-0.3,10.7-0.3"/>
</g>
<path id="XMLID_122_" class="st10" d="M508.2,437.2c0,0-1.4-34.3,89.7-36.4c0,0-2.1,26.8-39.7,52.2c0,0,25.7,16.8,33.2,42.5  c0,0-52.5-6.1-83.3,16.1V437.2z"/>
<path id="XMLID_121_" class="st10" d="M92.3,437.2c0,0,1.4-34.3-89.7-36.4c0,0,2.1,26.8,39.7,52.2c0,0-25.7,16.8-33.2,42.5  c0,0,52.5-6.1,83.3,16.1V437.2z"/>
<g id="XMLID_88_">
	<path id="XMLID_119_" d="M262.9,346.6c-0.9-0.7-1.9-1-3-1c-0.6,0-1.3,0.2-2,0.7c-0.2,0.2-0.4,0.4-0.6,0.7c-0.3,0.4-0.4,0.6-0.4,0.7   l0.3,0.6h1.6l1.3,1.3h-2.5v9.3l-1.3-1.2v-8.1h-1.2l-1.2-1.3h2.3c-0.2-0.2-0.3-0.3-0.5-0.5c-0.1-0.2-0.2-0.4-0.2-0.6   c0-0.4,0.1-0.6,0.2-0.8c0.3-0.5,0.5-0.8,0.7-1c0.8-0.8,1.7-1.2,2.7-1.2c1.2,0,2.4,0.4,3.8,1.3c0.4,0.3,1,0.7,1.7,1.4l0.4,1.2   L262.9,346.6z"/>
	<path id="XMLID_117_" d="M266.9,349.7v9.4l-1.3-1.3l0.1-5.7c0-0.3-0.2-0.7-0.6-1.2c-0.4-0.5-0.7-0.8-1-0.8c-0.4,0-0.7,0.2-0.7,0.5   c0.4,0.3,0.7,0.5,0.8,0.7c0.3,0.3,0.4,0.6,0.5,0.9c0.1,0.3,0,0.7-0.1,1c-0.2,0.4-0.6,0.7-1.2,0.7c-0.5,0-1-0.3-1.3-0.8   c-0.1,0.2-0.4,0.4-0.6,0.6c-0.3,0.2-0.6,0.3-0.8,0.3c-0.4,0-0.7-0.2-0.9-0.5c-0.2-0.3-0.3-0.6-0.3-1c0-0.4,0.2-0.8,0.5-1.2   c0.3-0.4,0.6-0.7,1-0.8c-0.1-0.1-0.2-0.3-0.4-0.5c-0.2-0.2-0.5-0.3-0.9-0.3c0.3,0,0,0-1,0l-1.3-1.3h2.3c0.5,0,0.9,0.1,1.2,0.4   c0.3,0.3,0.5,0.5,0.5,0.5c0.2,0.2,0.3,0.4,0.4,0.5c0.3-0.6,0.9-1.1,1.7-1.3c0.2-0.1,0.4-0.1,0.4-0.1c0.4,0,1.1,0.7,1.9,2l0.2,0.3   l-0.2-2l-0.1-2.1c0.4,0.3,0.7,0.6,0.9,0.9c0.1,0.1,0.1,0.3,0.1,0.5c0,0.1,0,0.1,0,0.2c0.1,0.2,0.2,0.3,0.4,0.3h0.8l1.3,1.3H266.9z"/>
	<path id="XMLID_113_" d="M276.2,349.6v1c0.1,0,0.3,0,0.4,0c0.8,0,1.4,0.2,1.9,0.7c0.5,0.5,0.8,1.1,0.8,1.8c0,0.5-0.1,0.8-0.3,1.1   c-0.2,0.4-0.6,0.5-1,0.5c-0.7,0-1.2-0.2-1.5-0.7c-0.1-0.2-0.1-0.3-0.1-0.5c0-0.2,0.1-0.4,0.3-0.6c0.2-0.2,0.4-0.4,0.5-0.4   c0.3,0,0.5,0,0.6,0.1c0.2,0,0.4,0.1,0.5,0.2c0-0.1,0-0.1,0-0.1c0-0.2-0.2-0.4-0.5-0.6c-0.3-0.1-0.5-0.2-0.8-0.2   c-0.3,0-0.6,0-0.9,0.1v6.8l-0.8-0.9c-0.3-0.7-0.4-1.2-0.4-1.3c-0.1-0.3-0.3-0.6-0.6-1.1c-0.2-0.3-0.5-0.5-0.9-0.7   c-0.2,0.5-0.7,0.8-1.3,0.8c-0.4,0-0.7-0.1-1-0.4c-0.3-0.3-0.4-0.6-0.4-0.9c0-0.3,0.1-0.6,0.4-0.9c0.3-0.3,0.7-0.5,1.1-0.5   c0,0,0.1,0,0.1,0c0-0.1,0-0.2,0-0.3c0-0.3-0.1-0.5-0.3-0.8c-0.2-0.2-0.4-0.3-0.7-0.3c-0.1,0-0.2,0-0.3,0.1c0,0.1-0.1,0.2-0.1,0.4   c-0.2,0.5-0.6,0.8-1.1,0.8c-0.3,0-0.6-0.1-0.9-0.4c-0.3-0.3-0.4-0.6-0.4-1c0-0.7,0.3-1.1,0.8-1.3c0.1,0,0.2,0,0.3,0   c0-0.1-0.1-0.2-0.3-0.5c-0.1-0.1-0.2-0.2-0.2-0.2h-1.4l-1.2-1.3h13.2l1.3,1.3H276.2z M274.9,352.3c-0.9-0.1-1.6-0.5-2.1-1.3   c-0.3-0.4-0.5-0.9-0.6-1.3h-1.7c0.1,0.2,0.2,0.4,0.3,0.6c0,0,0.1,0.1,0.4,0.1c0.7,0.2,1.3,0.6,1.8,1.2c0.5,0.7,0.8,1.3,0.9,2   c0.5,0.3,0.8,0.7,1.1,1.1V352.3z M274.9,349.6h-1.5c0,0,0,0.1,0,0.2c0,0.6,0.4,0.9,1.3,0.9c0.1,0,0.2,0,0.2,0V349.6z"/>
	<path id="XMLID_111_" d="M281.2,349.3c-0.1-0.8-0.1-1.8-0.1-2.8l0.7,0.6c0,0.2,0.1,0.5,0.2,1c0,0.1,0.1,0.2,0.2,0.3h1.3l1.2,1.3   h-2.5v9.7l-1.2-1.3v-6.8c0-0.4-0.1-0.6-0.2-0.8c-0.3-0.5-0.8-0.8-1.3-0.8c-0.1,0-0.2,0-0.3,0l-1.3-1.2c0.8-0.1,1.4-0.1,1.8,0   C280.5,348.5,280.9,348.8,281.2,349.3z"/>
	<path id="XMLID_109_" d="M261.6,369.2L261.6,369.2c-0.1,0-0.3,0-0.8,0c-0.1,0-0.4,0-0.7,0.1c-0.3,0-0.5,0.1-0.7,0.1   c-0.2,0-0.4,0-0.8,0c-0.4,0-0.6,0-0.7,0c-0.6,0-1.2-0.2-1.7-0.5c-0.6-0.4-0.9-0.9-0.9-1.5c0-0.1,0.1-0.3,0.2-0.6   c0.1-0.3,0.3-0.5,0.4-0.6c0-0.1,0.1-0.1,0.1-0.1c0.1,0,0.2,0.1,0.4,0.3c0.1,0.2,0.2,0.3,0.1,0.3c-0.2,0.2-0.2,0.4-0.2,0.5   c0,0.4,0.3,0.6,0.9,0.6c0.3,0,0.8,0,1.4-0.1c0.6-0.1,1.1-0.1,1.4-0.1c1.4,0,2.4,0.5,2.8,1.4c0.1,0.3,0.2,0.6,0.2,0.9h1.4l1.3,1.3   h-7.6c0,0,0,0,0,0.1c0,0.2,0,0.3,0,0.3c0.5,0.1,0.9,0.3,1.3,0.6c0.4,0.4,0.6,0.8,0.7,1.3c0.7-0.8,1.4-1.3,2.3-1.7l1.7,1.1   c-0.7,0.7-1.2,1.3-1.4,1.6c-0.5,1-0.8,2-0.8,3c0,0.7,0.4,1.8,1.1,3.1l-1.3-0.7c-0.3-0.9-0.5-1.5-0.5-1.6c-0.2-0.6-0.3-1.1-0.3-1.6   c0-0.7,0.1-1.4,0.3-2c-0.2,0.2-0.4,0.5-0.7,0.8c-0.9,1.2-1.8,2-2.6,2.2c-0.6,0-1.1-0.3-1.5-0.8c-0.3-0.4-0.4-0.8-0.4-1.2   c0-0.2,0.1-0.3,0.3-0.5c0.1-0.1,0.3-0.2,0.4-0.3c0.2,0.7,0.4,1.1,0.6,1.1c0.1,0,0.2,0,0.3,0c0.3-0.1,0.7-0.4,1.2-1.1   c0.2-0.2,0.3-0.6,0.3-1c0-0.2,0-0.3-0.1-0.4c-0.1-0.2-0.2-0.3-0.3-0.4c-0.2-0.1-0.4-0.1-0.5,0c0,0.4-0.1,0.7-0.3,0.9   c-0.2,0.3-0.5,0.4-0.9,0.4c-0.9,0-1.4-0.4-1.4-1.3c0-0.5,0.3-1,0.8-1.3c0.2-0.1,0.3-0.2,0.4-0.2l-0.2-0.4h-1.9l-1.3-1.3h7.9   c0.2-0.1,0.3-0.3,0.3-0.5C262.1,369.3,261.9,369.2,261.6,369.2z"/>
	<path id="XMLID_106_" d="M265,372L265,372c-0.1-0.1-0.3-0.3-0.5-0.5l-0.2-0.4l-1.2-1.2h9.9l1.3,1.3h-2.6v9.4l-0.7-0.8   c-0.3-1.1-0.6-1.8-1-2.2c-0.5-0.5-0.9-0.8-1.2-0.9c-0.4,0.5-0.9,0.8-1.6,0.8c-0.7,0-1.2-0.3-1.6-0.9c0-0.1,0-0.2-0.1-0.4   c0-0.2-0.1-0.3-0.1-0.4c0-0.6,0.2-1,0.6-1.3c0.4-0.3,0.8-0.4,1.4-0.4c0.2,0,0.3,0,0.5,0.1c-0.1-0.6-0.4-1.1-0.9-1.4   c-0.1-0.1-0.5-0.2-1.1-0.4C265.5,372.2,265.1,372.1,265,372z M270.4,371.2H267c0.6,0.5,1,0.9,1.2,1.1c0.4,0.5,0.7,0.9,0.8,1.4   c0.2,0.8,0.3,1.3,0.3,1.7c0.3,0.3,0.7,0.8,1.2,1.4V371.2z"/>
	<path id="XMLID_104_" d="M274.2,370.8c-0.1-0.8-0.1-1.8-0.1-2.8l0.7,0.6c0,0.2,0.1,0.5,0.2,1c0,0.1,0.1,0.2,0.2,0.3h1.3l1.2,1.3   h-2.5v9.7l-1.2-1.3v-6.8c0-0.4-0.1-0.6-0.2-0.8c-0.3-0.5-0.8-0.8-1.3-0.8c-0.1,0-0.2,0-0.3,0l-1.3-1.2c0.8-0.1,1.4-0.1,1.8,0   C273.5,370,273.9,370.3,274.2,370.8z"/>
	<path id="XMLID_102_" d="M279.7,374.2c0.2,0.3,0.4,0.6,0.4,0.8c0,0.1,0,0.3,0,0.4c0,0.4-0.1,0.7-0.4,0.9c-0.3,0.2-0.6,0.4-1,0.4   c-1.3,0-1.9-0.6-1.9-1.9c0-0.6,0.2-1.2,0.7-1.6c0.5-0.4,1-0.6,1.6-0.6c1.2,0,2.1,0.7,3,2.1l0.1,0.2v-3.9h-6l-1.3-1.3h9.7l1.3,1.3   h-2.5v9.7l-0.7-0.9c0.1-0.4,0-1.1-0.3-2c-0.2-0.8-0.4-1.4-0.6-1.8c-0.3-0.6-0.7-1.1-1.1-1.5C280.4,374.4,280,374.3,279.7,374.2z"/>
	<path id="XMLID_100_" d="M263.5,392.7v9.4l-1.3-1.3l0.1-5.7c0-0.3-0.2-0.7-0.6-1.2c-0.4-0.5-0.7-0.8-1-0.8c-0.4,0-0.7,0.2-0.7,0.5   c0.4,0.3,0.7,0.5,0.8,0.7c0.3,0.3,0.4,0.6,0.5,0.9c0.1,0.3,0,0.7-0.1,1c-0.2,0.4-0.6,0.7-1.2,0.7c-0.5,0-1-0.3-1.3-0.8   c-0.1,0.2-0.4,0.4-0.6,0.6c-0.3,0.2-0.6,0.3-0.8,0.3c-0.4,0-0.7-0.2-0.9-0.5c-0.2-0.3-0.3-0.6-0.3-1c0-0.4,0.2-0.8,0.5-1.2   c0.3-0.4,0.6-0.7,1-0.8c-0.1-0.1-0.2-0.3-0.4-0.5c-0.2-0.2-0.5-0.3-0.9-0.3c0.3,0,0,0-1,0l-1.3-1.3h2.3c0.5,0,0.9,0.1,1.2,0.4   c0.3,0.3,0.5,0.5,0.5,0.5c0.2,0.2,0.3,0.4,0.4,0.5c0.3-0.6,0.9-1.1,1.7-1.3c0.2-0.1,0.4-0.1,0.4-0.1c0.4,0,1.1,0.7,1.9,2l0.2,0.3   l-0.2-2l-0.1-2.1c0.4,0.3,0.7,0.6,0.9,0.9c0.1,0.1,0.1,0.3,0.1,0.5c0,0.1,0,0.1,0,0.2c0.1,0.2,0.2,0.3,0.4,0.3h0.8l1.3,1.3H263.5z"/>
	<path id="XMLID_98_" d="M263,405.6c-0.3-0.2-1.1-0.8-2.5-1.6l-1.2-0.7l2.8-2l0.4-1.2l1,1.9l-1.9,1.4c0.6,0.4,1.3,0.9,2.2,1.6   c0.3,0.3,0.5,0.6,0.5,0.8l0.1,1.4C264,406.6,263.6,406,263,405.6z"/>
	<path id="XMLID_95_" d="M269.2,399.7c-1.1,0-2.3-0.8-3.5-2.4c-0.2-0.3-0.4-0.8-0.7-1.4c-0.2-0.6-0.3-1.1-0.4-1.6l-0.2-1.6l0.9,0.7   c0.1,0.7,0.5,1.6,1,2.7c0.4,0.8,1.1,1.5,2.3,2.1c0.2,0.1,0.4,0.2,0.6,0.2c0.6,0,1.1-0.3,1.3-1c0-0.1,0-0.1,0-0.2   c0-0.3-0.1-0.6-0.4-1c-0.5,0.6-1,0.9-1.6,0.9c-0.6,0-1-0.2-1.4-0.5c-0.4-0.4-0.5-0.8-0.5-1.4c0-0.9,0.2-1.8,0.6-2.6h-2.8l-1.2-1.3   h6.2c1.1,0,1.7,0.3,1.9,0.8c0.1,0.3,0.1,0.7,0,1c-0.2,0.7-0.8,1-1.7,1c-0.6,0-1.1-0.1-1.4-0.4c-0.3,0.7-0.4,1.2-0.4,1.5   c0,0.3,0.1,0.5,0.2,0.6c0,0,0.1,0.1,0.1,0.1c0.2,0,0.5-0.1,0.8-0.4c0.1-0.1,0.4-0.4,0.6-1c1.3,0.5,1.9,1.4,1.9,2.7   c0,0.7-0.2,1.2-0.7,1.7C270.5,399.5,269.9,399.7,269.2,399.7z M269.8,392.5c-0.2,0-0.4,0.1-0.6,0.2c-0.3,0.1-0.4,0.3-0.4,0.4   c0,0.1,0.2,0.1,0.5,0.2c0.7,0,1-0.1,1-0.4C270.3,392.7,270.1,392.5,269.8,392.5z"/>
	<path id="XMLID_93_" d="M277,392.7v9.3l-0.6-0.6c-0.3-0.5-0.5-1.1-0.8-1.6c-0.3-0.6-0.7-1-1.2-1.3c-0.9-0.6-1.8-0.9-2.7-1l-1.9-2.3   c0.6,0.1,1,0.2,1.2,0.2c0.9,0,1.7-0.2,2.4-0.7c0.4-0.3,0.6-0.6,0.6-0.8c0-0.2-0.1-0.4-0.3-0.6c-0.1,0.1-0.3,0.3-0.4,0.4   c-0.3,0.2-0.7,0.4-1.2,0.6c-0.5,0.2-0.9,0.3-1.3,0.3c-0.4,0-0.8-0.1-1-0.4c-0.3-0.3-0.4-0.6-0.4-1c0-0.3,0.1-0.5,0.3-0.8   c0.2-0.3,0.5-0.4,0.9-0.4c0.6,0,0.9,0.3,1,0.8c0.1,0,0.2-0.1,0.3-0.1c0.1-0.1,0.6-0.5,1.4-1.3c0.7,0.6,1.2,1,1.3,1.2   c0.5,0.5,0.7,1,0.7,1.6c0,0.5-0.2,1-0.5,1.4c-0.3,0.4-0.7,0.7-1.2,0.9c0.9,0.5,1.6,1.1,2.1,1.8v-8.7l0.9,0.6   c-0.1,0.5,0,0.8,0.1,1.1c0,0.1,0.1,0.1,0.3,0.2h0.9c0.1,0,0.1,0,0.2,0c0,0,0,0.1-0.1,0.2c0.1,0,0.2,0.1,0.1,0.2l0.1-0.3l1.2,1.2   H277z"/>
	<path id="XMLID_91_" d="M286.2,392.6v9.4l-1.3-1.2v-5c0-0.2-0.1-0.4-0.3-0.7c-0.2-0.2-0.4-0.3-0.7-0.3c-0.2,0-0.3,0.1-0.4,0.3   c-0.1,0.2-0.1,0.5,0,1.1l-0.9,0.3c0.1-0.3,0.1-0.5,0-0.6c-0.2-0.4-0.4-0.6-0.5-0.6c-0.3-0.3-0.7-0.4-1.1-0.4c-0.4,0-0.7,0.1-1,0.4   c-0.3,0.3-0.4,0.6-0.4,1c0,0.5,0.2,0.8,0.6,1c0-0.1-0.1-0.3-0.1-0.4c0-0.3,0.1-0.6,0.4-0.8c0.2-0.2,0.5-0.3,0.9-0.3   c0.5,0,0.9,0.3,1.1,0.9c0.2,0.5,0.2,0.8,0.1,1c-0.3,0.6-0.8,1-1.5,1c-0.6,0-1.2-0.2-1.7-0.5c-0.5-0.4-0.8-0.8-0.9-1.5   c0-0.2-0.1-0.5-0.1-0.7c0-0.7,0.2-1.2,0.6-1.8c0.4-0.6,0.9-0.9,1.6-0.9c0.7,0,1.3,0.2,1.8,0.8l0.1,0.2c0.1-0.2,0.3-0.4,0.5-0.6   c0.2-0.2,0.5-0.3,0.7-0.3c0.4,0,0.7,0.1,1,0.4c0.1,0.1,0.2,0.3,0.3,0.4c0,0,0.1,0.1,0.1,0.2v-1.5h-6.8l-1.3-1.3h10.6l1.3,1.3H286.2   z"/>
	<path id="XMLID_89_" d="M288.7,392.4c-0.1-0.8-0.1-1.8-0.1-2.8l0.7,0.6c0,0.2,0.1,0.5,0.2,1c0,0.1,0.1,0.2,0.2,0.3h1.3l1.2,1.3   h-2.5v9.7l-1.2-1.3v-6.8c0-0.4-0.1-0.6-0.2-0.8c-0.3-0.5-0.8-0.8-1.3-0.8c-0.1,0-0.2,0-0.3,0l-1.3-1.2c0.8-0.1,1.4-0.1,1.8,0   C288,391.5,288.4,391.8,288.7,392.4z"/>
</g>
<g id="XMLID_6_">
	<path id="XMLID_86_" class="st0" d="M135.5,506.4c0.4,0.5,0.7,1.3,1,2.3c0.7,2.7,0.6,4.9-0.4,6.7c-0.3,0.6-0.7,1.2-1.2,1.7   c-1.3,1.3-3,2-4.9,2.2c-1.9,0.2-3.8-0.2-5.6-1.1c-3.3-1.8-5.5-4.7-6.4-8.8c-0.4-1.8-0.5-3.8-0.3-6.1c0.3-2.1,0.8-4,1.6-5.7   c0.8-1.7,1.7-3.5,2.9-5.6c1.1,1.4,1.8,2.3,1.9,2.7c-1.1,1.7-1.7,3.3-2,4.8c-0.4,2.1-0.6,3.4-0.6,4.1c0,1.7,0.4,3.4,1.2,5.2   c1,2.1,2.2,3.4,3.7,4.1c1.3,0.6,2.6,1,3.9,1.1c1.7,0.2,2.8-0.1,3.3-0.9c0.2-0.3,0.3-0.7,0.3-1.1c0-0.4-0.1-0.7-0.4-0.9   c-0.1-0.1-0.3-0.1-0.5-0.1c-2.2-0.3-3.9-0.7-5.1-1.4c-1-0.5-1.9-1.3-2.7-2.2c-1.4-2.2-1.8-4.4-1.3-6.4c0.2-0.6,0.4-1.1,0.6-1.6   c0.8-1.5,2.5-2.7,5.2-3.6c0.2,0,0.5-0.1,0.9-0.3l-9.8-5.2l-2-5.4l36.6,19.5l2,5.3l-18.2-9.7c-0.4-0.1-1-0.1-1.9-0.1   c-0.2,0-0.3,0.1-0.4,0.2c-0.3,0.5,0.3,1.4,1.6,2.6c1.2,1.2,2.3,2,3.2,2.4c0.9,0.4,2.8,0.9,5.8,1.5c0.7,1.8,1.5,4.1,2.5,6.7   c-1.6,0.3-3.3,1-5,2.1c-1.8,1.1-3,2.2-3.7,3.4c-0.7,1-1.3,1.9-1.7,2.7c-1,1.8-1.5,4.5-1.5,8.1c-0.5,0.1-0.8,0.1-1.1,0   c-0.4-0.2-0.9-0.6-1.5-1.2c-0.7-0.7-1.1-1.1-1.1-1.4c0.4-1.9,0.9-3.8,1.3-5.6c0.5-2.3,1.1-4.1,1.8-5.3c1-2,2.7-3.9,5-5.7   c-2.2-1.2-4.1-2.7-5.7-4.3c-1.6-1.6-2.6-3-2.8-4c0-0.2-0.2-1-0.6-2.4c-0.6-0.2-1.8,0.1-3.4,1c-1.6,0.9-2.6,1.6-2.9,2.1   c-0.4,0.8-0.1,1.4,0.9,1.9c0.6,0.3,2.3,0.6,5.1,0.8c0.9,0.1,1.5,0.2,1.8,0.2C135.2,505.9,135.4,506.1,135.5,506.4L135.5,506.4z"/>
	<path id="XMLID_84_" class="st0" d="M171.6,518.1c0.3-1,0.7-2.1,1.1-3.5c0.6-1.8,1.6-4.6,3.2-8.2l1.9,3.8c-0.7,0.5-0.9,1.4-0.8,2.6   c0,0.2,0.3,0.4,0.7,0.7c1.3,0.5,2.6,1,3.9,1.6l2.5,5.2l-8.2-3.4l-11.2,26.7l-2.7-5.9l6-13.5c0.4-1.1,0.5-2.6,0.2-4.5   c-0.3-1.9-0.8-3.4-1.6-4.5c-0.8-1.2-1.8-2-2.9-2.5c-2.4-1-4.6-1-6.4,0.2c0.6,0.1,1.3,0.4,2,0.7c3.7,1.5,5.1,3.9,4.4,7   c-0.6,2.2-3.8,4.4-9.6,6.6l-2.4-5.7c0.8-0.2,2.5-0.7,5-1.6c2.3-0.8,3.6-1.5,3.8-1.9c0.1-0.3-0.1-0.6-0.8-0.9c-0.3-0.1-1.3-0.1-3,0   c-1.7,0.1-2.8,0-3.5-0.2c-0.5-0.2-0.8-0.5-1.1-0.9c-1.3-1.6-1.6-3.2-1-4.7c0.4-1.1,1.3-2,2.7-2.9c1.3-0.9,2.7-1.3,4-1.5   c1.6-0.1,3.3,0.2,5.1,1C168.8,510.1,171.7,513.6,171.6,518.1z"/>
	<path id="XMLID_82_" class="st0" d="M186.4,530.4c0.4,1.2,0.6,2.1,0.6,2.8c0,0.4-0.1,0.8-0.3,1.2c-0.4,1.1-1.1,1.8-2.1,2.3   c-1,0.4-2.3,0.4-3.7-0.1c-4.1-1.4-5.6-3.8-4.4-7.4c0.6-1.8,1.9-3.1,3.8-3.7c1.9-0.7,3.9-0.7,6,0c3.8,1.3,6.3,4.4,7.6,9.4l0.2,0.7   l3.7-11.1l-19.6-6.5l-2.9-4.9l31.9,10.6l3.1,5l-8.3-2.8l-9.2,27.7l-1.4-3.4c0.6-1.2,0.9-3.2,0.9-6c0-2.6-0.1-4.5-0.3-5.7   c-0.4-2-1.2-3.8-2.4-5.4C188.5,531.7,187.5,530.8,186.4,530.4z"/>
	<path id="XMLID_80_" class="st0" d="M182.5,542.4c0.7,1.3,0.9,2.6,0.5,3.9c-0.2,0.8-0.7,1.5-1.5,2.1c-1,0.8-2.3,1-3.8,0.6   c-1.6-0.5-2.8-1.3-3.6-2.4c-0.8-1.2-1-2.4-0.6-3.8c0.5-2,1.7-3.4,3.5-4.1c1.8-0.7,3.8-0.7,6.1,0c3.8,1.1,6.4,3.9,8,8.3l2-6.9l3,4   l-4.2,14.5l-2.2-2.7l0.3-1.1c0-0.6-0.1-1.2-0.2-1.9c0.1-2.5-0.8-5-2.9-7.4C185.5,543.8,184,542.8,182.5,542.4z"/>
	<path id="XMLID_78_" class="st0" d="M209.3,526.8c0.4-2.5,1-5.2,1.8-8.1l1.8,2.3c-0.1,0.5,0,1.6,0.1,3c0.1,0.3,0.2,0.6,0.4,1   l4.4,1.2l3.1,4.8l-8.3-2.3l-7.7,28.1l-3-4.9l5.4-19.7c0.3-1,0.3-1.9,0-2.6c-0.8-1.8-2-2.9-3.7-3.4c-0.2-0.1-0.5-0.1-1-0.3l-3.2-4.7   c2.7,0.5,4.8,1,6.1,1.6C207.5,523.6,208.7,524.9,209.3,526.8z"/>
	<path id="XMLID_76_" class="st0" d="M241,535.2l-6,28.1l-2.2-4.2l-1.3-2.7c-1.3-2.7-3.6-5.2-7.1-7.3c-1.4-0.9-3.2-1.5-5.4-1.9   l-4.3-7.8l2.9,0.7c0.7,0,1.5,0,2.3,0.1c1.2,0.1,2.9-0.1,4.9-0.6c3.4-0.8,5.3-2.1,5.7-3.7c0.2-0.8,0-1.6-0.5-2.2   c-0.5-0.7-1.2-1.1-2.1-1.3c-0.5-0.1-1.3-0.1-2.4,0.1c-1.1,0.2-1.9,0.5-2.3,0.7c0.7,1.2,1,2.3,0.8,3.1c-0.2,1-0.8,1.7-1.9,2.1   c-1,0.4-2.1,0.5-3.2,0.3c-1.4-0.3-2.5-1-3.2-2c-0.6-0.9-0.7-1.9-0.5-3.1c0.2-0.7,0.5-1.4,0.9-2c1.2-1.5,2.9-2.6,5.2-3.2   c2.2-0.5,4.4-0.5,6.5,0.1c2.3,0.6,4,1.8,5.3,3.6c1.2,1.9,1.6,3.8,1.2,5.8c-0.7,3.2-3.5,5.6-8.4,7.2l2.4,2c1.8,1.6,3.4,3.4,4.6,5.5   l6-27.8l2.2,3.4l0,0.7c-0.2,1.1-0.1,1.9,0.3,2.3c1.1,0.2,2.5,0.5,4,0.9l3.5,4.8L241,535.2z"/>
	<path id="XMLID_74_" class="st0" d="M287.2,531.8c-2.8-2.3-6.1-3.7-10-4.2c-2.1-0.2-4.5,0.2-7.2,1.4c-0.6,0.4-1.4,1.1-2.3,1.9   c-1,1-1.5,1.6-1.5,1.9l0.8,2l5.5,0.6l3.9,4.2l-8.5-0.9l-3.1,27.9l-4-4.1l2.7-24.2l-4.1-0.5l-3.8-4.2l8,0.9   c-0.5-0.5-0.9-1.1-1.4-1.6c-0.5-0.6-0.6-1.2-0.6-1.8c0.2-1.1,0.5-1.9,1-2.4c1.2-1.4,2.1-2.3,2.7-2.7c3-2.2,6.2-3,9.7-2.7   c4.1,0.5,8.2,2.2,12.5,5.2c1.4,0.9,3.1,2.6,5.2,4.9l1,3.6L287.2,531.8z"/>
	<path id="XMLID_71_" class="st0" d="M294.2,540.8l-1.7,29l-2.6-3.7c-2.6-6.7-7.6-10.5-15-11.4l-4.2-5.8c3.4-1.9,6.2-3.3,8.4-4.1   c4.1-1.5,7.7-2.6,10.7-3.3l0.1-0.9l-19.5-1.1l-4-4l32.2,1.8l4,4L294.2,540.8z M289.6,546.9c-3.2,0.9-6.6,2.2-10.2,4   c4.1,2,7.3,4.6,9.6,7.7L289.6,546.9z"/>
	<path id="XMLID_69_" class="st0" d="M325.5,540.4l0.7,28.3l-4.5-3.7l-0.2-17c0-0.8-0.7-2-2.1-3.5c-1.4-1.5-2.5-2.3-3.4-2.2   c-1.4,0.2-2.3,0.7-2.5,1.4c1.4,0.9,2.3,1.5,2.8,1.9c0.9,0.8,1.5,1.6,1.8,2.6c0.3,1,0.2,2-0.2,3.1c-0.5,1.4-1.9,2.1-4.1,2.1   c-1.8,0-3.3-0.7-4.6-2.3c-0.5,0.7-1.2,1.4-2.1,1.9c-1,0.5-1.9,0.8-2.8,0.9c-1.3,0-2.4-0.4-3.2-1.3c-0.8-0.9-1.3-1.9-1.3-3   c0-1.1,0.5-2.3,1.6-3.6c1-1.2,2.1-2,3.3-2.6c-0.3-0.4-0.7-0.9-1.3-1.5c-0.8-0.5-1.8-0.8-3-0.8c1.2,0,0.1,0-3.4,0.1l-4.4-3.7   l7.8-0.2c1.6,0,3,0.3,4.2,1c1.1,0.9,1.7,1.3,1.7,1.4c0.6,0.5,1,1.1,1.3,1.6c1.1-1.9,3.1-3.3,5.8-4c0.7-0.2,1.2-0.3,1.5-0.3   c1.5,0,3.8,1.9,6.8,5.9l0.7,0.9l-0.8-6.1l-0.5-6.4c1.3,1,2.4,1.8,3.1,2.5c0.3,0.4,0.5,0.8,0.5,1.4c0,0.2,0,0.4,0,0.7   c0.3,0.5,0.8,0.8,1.4,0.9l2.8-0.1l4.4,3.7L325.5,540.4z"/>
	<path id="XMLID_66_" class="st0" d="M323.3,569c-2.1-3.9-5.4-5.7-9.7-5.4l-2.8-5.4c0.5-0.4,4.2-2.9,11.1-7.3c0.4,0,0.8-0.1,1.2-0.1   c0.4,0,1.1-0.1,2.1-0.1l1.3,19.5L323.3,569z M321.6,556.6c-0.6,0.4-2,1.4-4.3,2.9c1.4,0.4,3,1.5,4.7,3.3L321.6,556.6z"/>
	<path id="XMLID_64_" class="st0" d="M354.1,528.6c-3.2-1.7-6.8-2.5-10.7-2.1c-2.1,0.2-4.4,1.1-6.8,2.8c-0.5,0.6-1.1,1.3-1.8,2.3   c-0.8,1.2-1.2,1.9-1.1,2.2l1.2,1.8l5.5-0.5l4.6,3.4l-8.5,0.7l2.4,27.9l-4.7-3.3l-2.1-24.3l-4.2,0.4l-4.6-3.4l8-0.7   c-0.6-0.4-1.1-0.9-1.7-1.3c-0.6-0.5-0.9-1-0.9-1.7c-0.1-1.1,0.1-1.9,0.5-2.6c0.9-1.6,1.6-2.7,2.1-3.2c2.5-2.7,5.5-4.2,9-4.5   c4.1-0.3,8.5,0.5,13.3,2.7c1.5,0.6,3.6,1.9,6.1,3.8l1.7,3.4L354.1,528.6z"/>
	<path id="XMLID_61_" class="st0" d="M362.7,536.1l4,28.8l-3.2-3.1c-3.9-6.1-9.5-8.8-16.9-8.3l-5.2-4.9c3-2.5,5.5-4.4,7.4-5.7   c3.7-2.3,7-4.1,9.9-5.3l-0.1-0.9l-19.4,2.7l-4.7-3.2l32-4.5l4.7,3.1L362.7,536.1z M359.4,543c-3,1.5-6,3.4-9.3,5.9   c4.4,1.2,8,3.1,10.9,5.7L359.4,543z"/>
	<path id="XMLID_59_" class="st0" d="M372.6,534.2l2,9.5c0.8-0.9,2-2.3,3.6-4.2c1.8-1.9,4.4-3.9,7.8-6l6.7,2.6   c-1.8,5.4-2.3,9.9-1.5,13.6c0.2,0.8,0.4,1.5,0.7,2.3c0,0.4,0.9,2.5,2.5,6.4l-3.7-0.8c-2.3-4.7-3.7-8.3-4.2-10.8   c-0.4-2.1-0.7-4.1-0.7-6.2c-4.7,2.9-7.7,7.2-8.8,12.7l-5.8-3.3l-3.2-14.8l-2.7,0.6l-5.1-2.8l32.5-7l5.1,2.8L372.6,534.2z"/>
	<path id="XMLID_57_" class="st0" d="M405.8,525.9c-1.2,0.3-2.1,0.9-2.9,1.7c-0.8,0.8-1.1,1.7-1,2.7c0.1,1.7,1,4.2,2.7,7.5   c2,3.9,3.1,6.3,3.3,7.2c0.8,3.1-0.3,6-3.3,9c-1.4,1.4-2.6,2.2-3.5,2.5c-1,0.3-1.8,0-2.3-0.8c-0.1-0.1-0.2-0.2-0.2-0.4   c-0.1-0.5,0.2-0.9,1-1.4c1.1-0.6,1.6-1,1.7-1c1-1.2,1.6-2,1.7-2.3c0.3-0.8,0.3-2,0.1-3.5c-0.1-0.7-0.9-2.1-2.3-4.4   c-1.5-2.4-2.5-4.4-2.9-5.8c-0.5-1.8-0.4-3.8,0.2-5.9c0.5-1.1,1-2.1,1.4-3.2l-7.4,2l-5.2-2.5l19.4-5.3l5.4,2.4   C410.1,524.8,408.1,525.2,405.8,525.9z"/>
	<path id="XMLID_55_" class="st0" d="M410.4,523.7c-1-2.3-1.9-4.9-2.8-7.8l2.8,0.9c0.2,0.5,0.8,1.3,1.7,2.5c0.2,0.2,0.5,0.3,0.9,0.6   l4.4-1.4l5.2,2.3l-8.2,2.6l8.7,27.8l-5.2-2.6l-6.1-19.5c-0.3-1-0.8-1.8-1.5-2.2c-1.6-1.1-3.2-1.4-4.9-0.8c-0.2,0.1-0.5,0.2-0.9,0.3   l-5.2-2.2c2.6-1.1,4.6-1.7,6-2C407.2,522,408.9,522.4,410.4,523.7z"/>
	<path id="XMLID_53_" class="st0" d="M443.5,513l9.9,26.6l-5.3-1.9l-5.3-14.2c-0.2-0.6-0.8-1.1-1.7-1.5c-0.9-0.3-1.8-0.4-2.5-0.1   c-0.6,0.2-1,0.7-1.1,1.3c-0.1,0.6,0.3,1.6,1.1,3.1l-2.5,2c0.1-0.8-0.1-1.4-0.7-1.8c-1.1-0.7-1.9-1.1-2.2-1.2   c-1.2-0.5-2.6-0.5-4.2,0.1c-1.2,0.5-2.2,1.2-2.8,2.4c-0.7,1.1-0.8,2.2-0.4,3.3c0.5,1.4,1.5,2.1,3.1,2c-0.3-0.3-0.5-0.7-0.7-1.1   c-0.3-0.9-0.2-1.8,0.3-2.7c0.5-0.9,1.3-1.6,2.4-2c1.6-0.7,3.1-0.3,4.5,1.1c1.1,1.1,1.6,2,1.6,2.8c-0.2,2.1-1.5,3.6-3.8,4.5   c-2.1,0.8-4.1,1-6.1,0.6c-2-0.4-3.5-1.4-4.5-3c-0.4-0.6-0.7-1.3-1-2c-0.7-1.9-0.7-3.7-0.1-5.6c0.7-2.1,2.1-3.6,4.1-4.4   c2.2-0.9,4.4-0.9,6.6,0l0.6,0.3c0.2-0.7,0.5-1.5,1.1-2.3c0.6-0.8,1.2-1.3,1.8-1.5c1.3-0.4,2.4-0.4,3.5-0.1c0.5,0.3,1,0.5,1.4,0.7   c0.2,0.1,0.4,0.2,0.6,0.3l-1.6-4.2l-22.1,8.2l-5.5-2l34.1-12.7l5.5,2L443.5,513z"/>
	<path id="XMLID_7_" class="st0" d="M468.1,502.1l11.8,26.1l-3.1-1.1c-1.7-1.3-2.8-2.1-3.4-2.4c-1.1-0.6-2.4-1.2-3.9-1.6   c-2.1-0.6-3.9-0.8-5.4-0.6c-1.3,0.2-3.1,0.7-5.4,1.6l-6.4-2.8c1.5-3.4,3.3-6.7,5.4-10c-0.4-0.1-0.6-0.2-0.8-0.2   c-0.8,0-2.6,0.3-5.4,1.1c-2.1,0.6-3.9,0.5-5.4-0.2l-5.4-1.6l29.9-13.5l5.7,1.6L468.1,502.1z M464.2,503.9l-7.9,3.6   c0.6,0.1,1.3,0.2,2,0.3c0.5,0.1,2.5,0.9,6.1,2.3c-0.5,1.4-1.2,2.8-2,4.3c-0.4,0.7-1,2.2-1.8,4.3c4-0.5,7.8,0.2,11.3,1.9   L464.2,503.9z M467.1,531c-1.1,0.5-2.1,0.6-3.1,0.2c-1-0.3-1.7-0.9-2.1-1.8c-0.4-0.8-0.4-1.7,0-2.6c0.4-0.9,1.1-1.5,2-2   c1-0.5,2.1-0.6,3.1-0.3c1,0.3,1.7,0.9,2,1.7c0.4,0.8,0.4,1.7,0,2.6C468.7,529.9,468.1,530.6,467.1,531z"/>
</g>
<polyline id="XMLID_5_" class="st11" points="308.1,356.7 313,358.4 317,355.1 321.9,356.9 325.5,353.5 328.9,355.6 332.1,352.4   334.8,354.5 339.1,351.1 "/>
<polyline id="XMLID_4_" class="st11" points="310.2,388.8 316.1,390.9 320.9,386.8 326.8,389 331.2,385 335.3,387.5 339.2,383.6   342.4,386.2 347.7,382.1 "/>
<polyline id="XMLID_3_" class="st11" points="311.7,404.6 318,406.9 323.2,402.6 329.5,404.9 334.2,400.6 338.6,403.3 342.8,399.1   346.2,401.9 351.9,397.4 "/>
<polyline id="XMLID_2_" class="st11" points="309.4,373.2 314.8,375.2 319.1,371.5 324.5,373.5 328.5,369.8 332.2,372.1   335.8,368.5 338.8,370.9 343.5,367.1 "/>
</svg>